<?xml version="1.0" encoding="UTF-8" standalone="no"?>
<svg
   enable-background="new 0 0 91 91"
   height="91px"
   id="Layer_1"
   version="1.1"
   viewBox="0 0 91 91"
   width="91px"
   xml:space="preserve"
   sodipodi:docname="ball-celebrate.svg"
   inkscape:version="1.2.2 (732a01da63, 2022-12-09)"
   xmlns:inkscape="http://www.inkscape.org/namespaces/inkscape"
   xmlns:sodipodi="http://sodipodi.sourceforge.net/DTD/sodipodi-0.dtd"
   xmlns="http://www.w3.org/2000/svg"
   xmlns:svg="http://www.w3.org/2000/svg"><defs
     id="defs15" /><sodipodi:namedview
     id="namedview13"
     pagecolor="#ffffff"
     bordercolor="#000000"
     borderopacity="0.25"
     inkscape:showpageshadow="2"
     inkscape:pageopacity="0.0"
     inkscape:pagecheckerboard="0"
     inkscape:deskcolor="#d1d1d1"
     showgrid="false"
     inkscape:zoom="12.78022"
     inkscape:cx="45.578245"
     inkscape:cy="45.656491"
     inkscape:window-width="2560"
     inkscape:window-height="1368"
     inkscape:window-x="-8"
     inkscape:window-y="-8"
     inkscape:window-maximized="1"
     inkscape:current-layer="Layer_1" /><g
     id="g1255"
     style="fill:#ffffff;stroke:#c7baad;stroke-opacity:1"><path
       d="m 59.02,32.354 v -6.965 c 0,-1.287 -0.938,-2.346 -2.166,-2.553 1.02,-1.217 1.658,-2.764 1.658,-4.471 0,-3.859 -3.141,-7.002 -7.002,-7.002 -3.859,0 -7.002,3.143 -7.002,7.002 0,1.707 0.641,3.254 1.66,4.471 -1.229,0.207 -2.166,1.266 -2.166,2.553 v 6.965 c -11.127,3.25 -19.266,13.51 -19.266,25.688 0,14.785 11.988,26.771 26.773,26.771 14.789,0 26.775,-11.986 26.775,-26.771 C 78.285,45.863 70.146,35.604 59.02,32.354 Z M 51.51,13.961 c 2.43,0 4.406,1.975 4.406,4.404 0,2.429 -1.977,4.404 -4.406,4.404 -2.428,0 -4.404,-1.975 -4.404,-4.404 0,-2.429 1.976,-4.404 4.404,-4.404 z m 17.404,45.603 h -1.316 l 1.902,1.9 c 0.596,0.596 0.596,1.559 0,2.154 -0.297,0.297 -0.688,0.447 -1.076,0.447 -0.391,0 -0.779,-0.15 -1.076,-0.447 l -4.057,-4.055 h -8.105 l 5.729,5.727 h 5.74 c 0.84,0 1.523,0.682 1.523,1.523 0,0.84 -0.684,1.521 -1.523,1.521 h -2.693 l 0.932,0.936 c 0.596,0.592 0.596,1.557 0,2.15 -0.297,0.297 -0.686,0.447 -1.076,0.447 -0.389,0 -0.777,-0.15 -1.076,-0.447 l -0.93,-0.93 v 2.689 c 0,0.842 -0.684,1.523 -1.523,1.523 -0.839,0 -1.523,-0.682 -1.523,-1.523 v -5.734 l -5.73,-5.73 v 8.102 l 4.057,4.059 c 0.596,0.594 0.596,1.559 0,2.152 -0.297,0.297 -0.686,0.445 -1.074,0.445 -0.391,0 -0.781,-0.148 -1.078,-0.445 l -1.904,-1.902 v 1.316 c 0,0.842 -0.68,1.523 -1.523,1.523 -0.84,0 -1.521,-0.682 -1.521,-1.523 v -1.316 l -1.904,1.902 c -0.596,0.596 -1.559,0.596 -2.152,0 -0.596,-0.594 -0.596,-1.559 0,-2.152 l 4.057,-4.059 v -8.104 l -5.73,5.732 v 5.734 c 0,0.842 -0.682,1.523 -1.521,1.523 -0.842,0 -1.523,-0.682 -1.523,-1.523 l -0.002,-2.689 -0.93,0.93 c -0.297,0.297 -0.688,0.447 -1.078,0.447 -0.389,0 -0.779,-0.15 -1.076,-0.447 -0.594,-0.594 -0.594,-1.559 0,-2.15 l 0.932,-0.936 h -2.691 c -0.84,0 -1.523,-0.682 -1.523,-1.521 0,-0.842 0.684,-1.523 1.523,-1.523 h 5.738 l 5.73,-5.727 H 39.73 l -4.057,4.055 c -0.297,0.297 -0.688,0.447 -1.078,0.447 -0.387,0 -0.777,-0.15 -1.074,-0.447 -0.596,-0.596 -0.596,-1.559 0,-2.154 l 1.904,-1.9 h -1.32 c -0.84,0 -1.521,-0.684 -1.521,-1.527 0,-0.84 0.682,-1.52 1.521,-1.52 h 1.32 l -1.904,-1.904 c -0.596,-0.594 -0.596,-1.559 0,-2.154 0.594,-0.596 1.557,-0.596 2.152,0 l 4.057,4.059 h 8.104 l -5.729,-5.73 h -5.738 c -0.84,0 -1.523,-0.682 -1.523,-1.523 0,-0.84 0.684,-1.523 1.523,-1.523 h 2.691 l -0.932,-0.93 c -0.594,-0.596 -0.594,-1.561 0,-2.154 0.594,-0.593 1.559,-0.594 2.154,0 l 0.93,0.934 0.002,-2.693 c 0,-0.842 0.682,-1.523 1.523,-1.523 0.84,0 1.521,0.682 1.521,1.523 v 5.736 l 5.73,5.73 V 46.26 l -4.057,-4.057 c -0.596,-0.594 -0.596,-1.559 0,-2.152 0.594,-0.596 1.557,-0.596 2.152,0 l 1.904,1.902 v -1.318 c 0,-0.84 0.682,-1.52 1.521,-1.52 0.844,0 1.523,0.68 1.523,1.52 v 1.318 l 1.904,-1.902 c 0.596,-0.596 1.561,-0.596 2.152,0 0.596,0.594 0.596,1.557 0,2.152 l -4.057,4.057 v 8.102 l 5.73,-5.729 v -5.736 c 0,-0.842 0.684,-1.523 1.523,-1.523 0.839,0 1.523,0.682 1.523,1.523 v 2.693 l 0.93,-0.934 c 0.596,-0.594 1.561,-0.594 2.152,0 0.596,0.594 0.596,1.559 0,2.154 l -0.93,0.93 h 2.691 c 0.84,0 1.523,0.684 1.523,1.523 0,0.842 -0.684,1.523 -1.523,1.523 h -5.736 l -5.732,5.73 h 8.105 l 4.057,-4.059 c 0.594,-0.596 1.559,-0.596 2.152,0 0.596,0.596 0.596,1.561 0,2.154 l -1.902,1.904 h 1.316 c 0.842,0 1.523,0.68 1.523,1.52 0.008,0.846 -0.674,1.529 -1.516,1.529 z"
       id="path2"
       style="fill:#ffffff;stroke:#c7baad;stroke-opacity:1" /><path
       d="m 21.225,64.033 -5.283,-1.852 -1.854,-5.287 c -0.045,-0.127 -0.166,-0.211 -0.301,-0.211 -0.135,0 -0.256,0.084 -0.301,0.211 l -1.852,5.287 -5.284,1.852 c -0.127,0.045 -0.213,0.164 -0.213,0.301 0,0.135 0.086,0.254 0.213,0.301 l 5.285,1.85 1.852,5.287 c 0.045,0.129 0.166,0.215 0.301,0.215 0.135,0 0.256,-0.086 0.301,-0.215 l 1.854,-5.287 5.283,-1.85 c 0.129,-0.047 0.215,-0.166 0.215,-0.301 -0.002,-0.137 -0.087,-0.256 -0.216,-0.301 z"
       id="path4"
       style="fill:#ffffff;stroke:#c7baad;stroke-opacity:1" /><circle
       cx="24.635"
       cy="19.108999"
       r="4.6129999"
       id="circle6"
       style="fill:#ffffff;stroke:#c7baad;stroke-opacity:1" /><circle
       cx="77.099998"
       cy="23.722"
       r="3.46"
       id="circle8"
       style="fill:#ffffff;stroke:#c7baad;stroke-opacity:1" /><path
       style="fill:#ffffff;stroke:#c7baad;stroke-width:0.758985;paint-order:markers stroke fill;stroke-opacity:1"
       d="M 50.889885,76.770422 C 50.24929,76.470803 50.00029,75.911231 49.999577,74.769652 l -4.37e-4,-0.698534 -1.117358,1.100896 c -1.126908,1.110306 -1.370985,1.272474 -1.917184,1.273809 -0.246329,6.26e-4 -0.720408,-0.206982 -0.945692,-0.414089 -0.405198,-0.372504 -0.585031,-1.095336 -0.396871,-1.595213 0.0456,-0.121149 1.049107,-1.189383 2.230009,-2.373855 l 2.147096,-2.153585 v -4.144814 -4.144815 l -2.895099,2.894306 -2.895099,2.894305 v 3.046845 c 0,2.944931 -0.0056,3.058312 -0.165971,3.389695 -0.451526,0.932728 -1.757524,1.06923 -2.442417,0.255281 -0.310291,-0.368761 -0.364048,-0.703271 -0.36452,-2.268298 l -4.36e-4,-1.445713 -0.606406,0.601302 c -0.849204,0.842058 -1.330361,1.007883 -2.01807,0.6955 -0.385899,-0.17529 -0.706801,-0.542003 -0.814901,-0.931235 -0.181857,-0.654803 -0.04774,-0.9886 0.717427,-1.78562 l 0.630877,-0.657136 -1.438771,-4.69e-4 c -1.565062,-4.7e-4 -1.892299,-0.05398 -2.269059,-0.371001 -0.854513,-0.718994 -0.63153,-2.042228 0.418051,-2.480771 0.244483,-0.102151 0.75866,-0.121103 3.285657,-0.121103 h 2.995816 l 2.894306,-2.895099 2.894305,-2.895099 h -4.103291 -4.103291 l -2.155986,2.140723 c -1.661778,1.650015 -2.225336,2.163271 -2.458529,2.239087 -1.150695,0.374118 -2.251419,-0.664529 -1.917419,-1.809282 0.07994,-0.273988 0.311392,-0.556688 1.184612,-1.446908 l 1.085259,-1.106388 -0.898993,-0.02854 c -0.849986,-0.02698 -0.917461,-0.04137 -1.237766,-0.263962 -0.818829,-0.569031 -0.91567,-1.615747 -0.211172,-2.282487 0.374622,-0.354544 0.597991,-0.41559 1.520658,-0.41559 0.449068,0 0.816488,-0.0249 0.816488,-0.05533 0,-0.03043 -0.489581,-0.549788 -1.087957,-1.154127 -0.91339,-0.92249 -1.10326,-1.155293 -1.183329,-1.450903 -0.291751,-1.077118 0.721689,-2.086691 1.806956,-1.800061 0.306129,0.08085 0.605005,0.348704 2.539639,2.276028 l 2.192677,2.184394 h 4.105722 4.105722 l -2.894305,-2.895099 -2.894306,-2.895099 -2.895496,-4.36e-4 c -1.849462,-2.79e-4 -3.008564,-0.03132 -3.208479,-0.08593 -1.264368,-0.34537 -1.53455,-1.968799 -0.44288,-2.661115 l 0.356149,-0.225863 h 1.59724 1.59724 L 38.507766,47.14035 c -0.458049,-0.483898 -0.656274,-0.757212 -0.719516,-0.992072 -0.256184,-0.951395 0.425942,-1.859751 1.397278,-1.86069 0.537916,-5.2e-4 0.791379,0.137412 1.482787,0.806916 l 0.567283,0.549311 v -1.432134 c 0,-1.638947 0.06129,-1.94193 0.476891,-2.357533 0.713214,-0.713214 1.929063,-0.491114 2.34676,0.428685 0.134631,0.296466 0.146393,0.561556 0.147975,3.334931 l 0.0017,3.012865 2.895099,2.894306 2.895099,2.894305 v -4.108067 -4.108068 l -2.078878,-2.072963 c -1.143383,-1.14013 -2.146887,-2.203601 -2.230009,-2.363268 -0.595622,-1.144128 0.635166,-2.477601 1.857772,-2.012767 0.120689,0.04589 0.721562,0.581277 1.335274,1.189758 l 1.115841,1.10633 4.7e-4,-0.739844 c 5.47e-4,-0.960564 0.09742,-1.288643 0.498953,-1.690178 0.559697,-0.559697 1.277526,-0.609888 1.907394,-0.133364 0.450962,0.341197 0.566528,0.68457 0.566528,1.683378 v 0.879775 l 1.075881,-1.062455 c 0.591735,-0.58435 1.188567,-1.119689 1.326295,-1.189641 0.30454,-0.154679 0.877501,-0.16476 1.220433,-0.02147 0.344076,0.143764 0.734262,0.606673 0.838895,0.995249 0.09289,0.344964 0.04925,0.677235 -0.137997,1.0508 -0.06471,0.129106 -1.063978,1.186825 -2.220585,2.350487 l -2.102922,2.115749 v 4.046117 c 0,2.225364 0.02659,4.046116 0.05909,4.046116 0.0325,0 1.333953,-1.276386 2.892124,-2.836414 l 2.833039,-2.836414 0.02253,-3.090714 c 0.02502,-3.431142 0.01037,-3.331961 0.564121,-3.818166 0.238999,-0.209844 0.6959,-0.406241 0.945087,-0.406241 0.251659,0 0.707379,0.197531 0.952745,0.412964 0.457941,0.402078 0.494805,0.572172 0.494805,2.283134 0,0.84057 0.02266,1.528309 0.05036,1.528309 0.0277,0 0.341499,-0.27951 0.697342,-0.621133 0.699717,-0.671756 0.908443,-0.763215 1.57129,-0.688503 0.661017,0.07451 1.202079,0.705162 1.202079,1.401129 0,0.54192 -0.100549,0.729697 -0.745765,1.392717 -0.321429,0.330299 -0.584416,0.624423 -0.584416,0.653609 0,0.02919 0.687739,0.05307 1.528309,0.05307 1.710962,0 1.881056,0.03686 2.283133,0.494804 0.215434,0.245366 0.412965,0.701086 0.412965,0.952745 0,0.249187 -0.196397,0.706088 -0.406241,0.945087 C 67.25886,50.754654 67.35804,50.74 63.926898,50.765018 l -3.090714,0.02254 -2.836414,2.833039 c -1.560028,1.558171 -2.836414,2.859627 -2.836414,2.892124 0,0.0325 1.821317,0.05909 4.047372,0.05909 h 4.047373 l 2.114493,-2.108331 c 2.165275,-2.158966 2.501927,-2.426495 3.053444,-2.426495 0.507244,0 1.180594,0.473883 1.364326,0.960169 0.12243,0.324039 0.101344,0.88639 -0.04396,1.172481 -0.06995,0.137728 -0.605292,0.73456 -1.189643,1.326295 l -1.062454,1.075881 h 0.879775 c 0.998808,0 1.34218,0.115566 1.683378,0.566561 0.237463,0.313879 0.385325,0.840893 0.3177,1.132356 -0.09697,0.417956 -0.403177,0.843035 -0.748196,1.038667 -0.289688,0.164259 -0.465145,0.197377 -1.181361,0.222991 -0.462629,0.01655 -0.841144,0.0531 -0.841144,0.08124 0,0.02814 0.461379,0.508388 1.025286,1.067226 0.563908,0.558837 1.074462,1.129372 1.134566,1.267854 0.227645,0.524504 0.06929,1.322875 -0.332308,1.675364 -0.454308,0.398757 -1.145782,0.494864 -1.654608,0.229974 -0.159668,-0.08312 -1.223138,-1.086626 -2.363267,-2.230009 l -2.072964,-2.078878 h -4.108068 -4.108067 l 2.894306,2.895099 2.894305,2.895099 3.012864,0.0017 c 2.753789,0.0016 3.040057,0.01407 3.329086,0.145357 1.086943,0.493731 1.165442,1.963309 0.13896,2.601457 -0.284556,0.176903 -0.374017,0.186892 -1.890716,0.211105 l -1.592026,0.02542 0.543634,0.561429 c 0.298999,0.308786 0.605749,0.681971 0.681665,0.829301 0.435626,0.845406 -0.171948,1.968489 -1.134794,2.097633 -0.490541,0.0658 -0.935735,-0.152762 -1.562207,-0.766928 -0.304218,-0.298245 -0.587091,-0.542261 -0.628607,-0.542261 -0.04591,0 -0.07548,0.599099 -0.07548,1.528913 0,1.345903 -0.01774,1.563661 -0.148166,1.819217 -0.183012,0.35858 -0.36076,0.523248 -0.732452,0.67855 -0.36648,0.153126 -0.767384,0.153126 -1.133864,0 -0.371692,-0.155302 -0.54944,-0.31997 -0.732452,-0.67855 C 58.85123,73.577594 58.84092,73.346162 58.84092,70.521856 V 67.48632 l -2.934222,-2.93344 -2.934222,-2.933439 v 4.108053 4.108053 l 2.152592,2.151229 c 2.334155,2.332677 2.456806,2.496546 2.353259,3.144089 -0.143894,0.899867 -0.992067,1.465761 -1.852592,1.236034 -0.287759,-0.07682 -0.527325,-0.272625 -1.443801,-1.18006 -0.604339,-0.598376 -1.123696,-1.087957 -1.154127,-1.087957 -0.03043,0 -0.05533,0.3762 -0.05533,0.836001 0,0.691996 -0.02859,0.895059 -0.165971,1.178852 -0.331056,0.683868 -1.212683,0.985938 -1.916629,0.656687 z"
       id="path972" /></g></svg>
