<?xml version="1.0" encoding="UTF-8" standalone="no"?>
<svg
   viewBox="0 0 64 64"
   version="1.1"
   id="svg1545"
   sodipodi:docname="basket_fruit.svg"
   inkscape:version="1.2.2 (732a01da63, 2022-12-09)"
   xmlns:inkscape="http://www.inkscape.org/namespaces/inkscape"
   xmlns:sodipodi="http://sodipodi.sourceforge.net/DTD/sodipodi-0.dtd"
   xmlns="http://www.w3.org/2000/svg"
   xmlns:svg="http://www.w3.org/2000/svg">
  <sodipodi:namedview
     id="namedview1547"
     pagecolor="#ffffff"
     bordercolor="#000000"
     borderopacity="0.25"
     inkscape:showpageshadow="2"
     inkscape:pageopacity="0.0"
     inkscape:pagecheckerboard="0"
     inkscape:deskcolor="#d1d1d1"
     showgrid="false"
     inkscape:zoom="18.171875"
     inkscape:cx="32.05503"
     inkscape:cy="32.05503"
     inkscape:window-width="2560"
     inkscape:window-height="1368"
     inkscape:window-x="-8"
     inkscape:window-y="-8"
     inkscape:window-maximized="1"
     inkscape:current-layer="svg1545" />
  <defs
     id="defs1492">
    <style
       id="style1490">.cls-1,.cls-3{fill:none;}.cls-1,.cls-2,.cls-3{stroke:#000;stroke-linejoin:round;stroke-width:2px;}.cls-1,.cls-2{stroke-linecap:round;}.cls-2{fill:#f53e28;}</style>
  </defs>
  <path
     class="cls-1"
     d="m 49.8648,26.4533 a 6.8526,6.8526 0 0 0 -2.6437,-6.1086 6.3382,6.3382 0 0 0 -3.8454,-1.1767 6.3386,6.3386 0 0 0 -3.3788,-2.1807 6.5014,6.5014 0 0 0 -4.9381,0.819"
     id="path1494"
     style="fill:#c7baad;fill-opacity:1;stroke:#ac9986;stroke-opacity:1" />
  <path
     class="cls-1"
     d="m 48.4293,15.4124 c 0,0 -2.865,-0.326 -4.9582,3.5926"
     id="path1496"
     style="fill:#c7baad;fill-opacity:1;stroke:#ac9986;stroke-opacity:1" />
  <path
     class="cls-1"
     d="m 17.557,20.3423 a 9.8946,9.8946 0 0 1 3.168,-1.7106 8.9437,8.9437 0 0 1 8.1864,1.1407"
     id="path1498"
     style="fill:#c7baad;fill-opacity:1;stroke:#ac9986;stroke-opacity:1" />
  <path
     class="cls-1"
     d="m 28.9444,24.4646 c -3.1918,1.3234 -5.0466,5.2608 -4.2334,9.4082 q 0.0958,0.4884 0.2347,0.9537"
     id="path1500"
     style="fill:#c7baad;fill-opacity:1;stroke:#ac9986;stroke-opacity:1" />
  <path
     class="cls-1"
     d="m 42.7185,27.787 a 6.6878,6.6878 0 0 0 -4.6354,-3.6756 6.1716,6.1716 0 0 0 -3.0042,0.17"
     id="path1502"
     style="fill:#c7baad;fill-opacity:1;stroke:#ac9986;stroke-opacity:1" />
  <path
     class="cls-1"
     d="m 59.6357,34.8611 c 0.3994,-4.2412 -1.9437,-8.0466 -5.5526,-8.75 A 6.3391,6.3391 0 0 0 50.1,26.665 6.3391,6.3391 0 0 0 46.1169,26.1114 c -3.5941,0.7 -5.9327,4.4772 -5.5574,8.6973"
     id="path1504"
     style="fill:#c7baad;fill-opacity:1;stroke:#ac9986;stroke-opacity:1" />
  <path
     class="cls-1"
     d="m 53.1,21.1294 c 0,0 -2.7355,0.9118 -2.9822,5.3476"
     id="path1506"
     style="fill:#c7baad;fill-opacity:1;stroke:#ac9986;stroke-opacity:1" />
  <path
     class="cls-1"
     d="M 24.5137,34.7907 A 9.4043,9.4043 0 0 0 22.88,30.9983 7.3749,7.3749 0 0 1 21.5357,27.9214 l -0.5232,-3.07 a 5.8921,5.8921 0 0 0 -5.8107,-4.8993 v 0 a 5.8921,5.8921 0 0 0 -5.8107,4.8993 l -0.4986,2.9264 a 8.023,8.023 0 0 1 -1.4185,3.29 9.4038,9.4038 0 0 0 -1.5817,3.7094"
     id="path1508"
     style="fill:#c7baad;fill-opacity:1;stroke:#ac9986;stroke-opacity:1" />
  <path
     class="cls-2"
     d="m 18.1,14.1294 c 0,0 -2.7355,0.9118 -2.9822,5.3476"
     id="path1510"
     style="fill:#c7baad;fill-opacity:1;stroke:#ac9986;stroke-opacity:1" />
  <path
     class="cls-1"
     d="m 8,12 h 2 a 5,5 0 0 1 5,5 v 0 H 13 A 5,5 0 0 1 8,12 Z"
     id="path1512"
     style="fill:#c7baad;fill-opacity:1;stroke:#ac9986;stroke-opacity:1" />
  <path
     class="cls-3"
     d="M 4.5612,41 C 7.1556,52.4109 18.4539,61 32,61 45.5461,61 56.8444,52.4109 59.4388,41"
     id="path1522"
     style="fill:#c7baad;fill-opacity:1;stroke:#ac9986;stroke-opacity:1" />
  <polyline
     class="cls-1"
     points="28.853 41 3 41 3 35 28.828 35"
     id="polyline1524"
     style="fill:#c7baad;fill-opacity:1;stroke:#ac9986;stroke-opacity:1" />
  <polyline
     class="cls-1"
     points="35.189 35 61 35 61 41 35.139 41"
     id="polyline1526"
     style="fill:#c7baad;fill-opacity:1;stroke:#ac9986;stroke-opacity:1" />
  <line
     class="cls-1"
     x1="11"
     x2="15"
     y1="46"
     y2="46"
     id="line1528"
     style="fill:#c7baad;fill-opacity:1;stroke:#ac9986;stroke-opacity:1" />
  <line
     class="cls-1"
     x1="18"
     x2="26"
     y1="50"
     y2="50"
     id="line1530"
     style="fill:#c7baad;fill-opacity:1;stroke:#ac9986;stroke-opacity:1" />
  <line
     class="cls-1"
     x1="29"
     x2="35"
     y1="50"
     y2="50"
     id="line1532"
     style="fill:#c7baad;fill-opacity:1;stroke:#ac9986;stroke-opacity:1" />
  <line
     class="cls-1"
     x1="48"
     x2="52"
     y1="53"
     y2="53"
     id="line1534"
     style="fill:#c7baad;fill-opacity:1;stroke:#ac9986;stroke-opacity:1" />
  <line
     class="cls-1"
     x1="38"
     x2="54"
     y1="45"
     y2="45"
     id="line1536"
     style="fill:#c7baad;fill-opacity:1;stroke:#ac9986;stroke-opacity:1" />
  <line
     class="cls-1"
     x1="14"
     x2="29"
     y1="55"
     y2="55"
     id="line1538"
     style="fill:#c7baad;fill-opacity:1;stroke:#ac9986;stroke-opacity:1" />
  <line
     class="cls-1"
     x1="32"
     x2="38"
     y1="55"
     y2="55"
     id="line1540"
     style="fill:#c7baad;fill-opacity:1;stroke:#ac9986;stroke-opacity:1" />
  <rect
     class="cls-1"
     height="33"
     rx="1.3164001"
     width="6"
     x="29"
     y="12"
     id="rect1542"
     style="fill:#c7baad;fill-opacity:1;stroke:#ac9986;stroke-opacity:1" />
  <path
     style="fill:#c7baad;fill-opacity:1;stroke:#ac9986;stroke-width:0.533792;stroke-opacity:1;paint-order:markers stroke fill"
     d="m 23.323621,29.785039 c -0.289653,-0.493635 -0.551035,-1.110273 -0.670631,-1.582116 -0.04603,-0.181599 -0.223686,-1.147377 -0.394792,-2.146173 -0.335046,-1.95576 -0.497247,-2.568997 -0.8806,-3.329321 -0.354549,-0.703194 -0.748727,-1.231968 -1.384836,-1.857704 -0.338687,-0.333165 -0.544289,-0.573803 -0.501709,-0.587205 0.03968,-0.01249 1.765113,-0.10571 3.834295,-0.207159 l 3.76215,-0.184451 0.420137,0.228401 0.420138,0.228401 0.01272,1.726402 0.01272,1.726402 -0.338156,0.192605 c -0.830382,0.472967 -1.731359,1.311608 -2.368906,2.20501 -0.692883,0.970945 -1.289732,2.359215 -1.516441,3.527239 -0.05186,0.267181 -0.108139,0.485866 -0.125067,0.485968 -0.01693,1.1e-4 -0.14339,-0.191734 -0.281027,-0.426299 z"
     id="path17295" />
  <path
     style="fill:#c7baad;fill-opacity:1;stroke:#ac9986;stroke-width:0.533792;stroke-opacity:1;paint-order:markers stroke fill"
     d="m 25.699685,33.544533 -0.06997,-0.409035 1.141189,-2.961558 c 0.627654,-1.628857 1.150908,-2.971876 1.162785,-2.984487 0.01188,-0.01261 0.0216,1.504156 0.0216,3.370593 v 3.393522 h -1.092817 -1.092818 z"
     id="path17297" />
  <path
     style="fill:#c7baad;fill-opacity:1;stroke:#ac9986;stroke-width:0.533792;stroke-opacity:1;paint-order:markers stroke fill"
     d="m 36.044712,29.527605 v -4.425962 l 0.29519,-0.03688 c 0.294434,-0.03679 0.300805,-0.03431 2.488535,0.968013 1.206339,0.552692 2.237134,1.056586 2.290655,1.119766 0.05352,0.06318 0.17268,0.229757 0.264797,0.370172 l 0.167487,0.255301 -0.329896,0.460091 c -1.018117,1.419919 -1.709872,3.566366 -1.709872,5.305557 V 33.95357 H 37.77816 36.044712 Z"
     id="path17299" />
  <path
     style="fill:#c7baad;fill-opacity:1;stroke:#ac9986;stroke-width:0.533792;stroke-opacity:1;paint-order:markers stroke fill"
     d="M 42.773658,25.929028 C 42.416973,25.461325 41.63511,24.704158 41.162511,24.36877 40.661242,24.013038 39.847247,23.592732 39.267528,23.390297 38.368087,23.076218 37.903905,23.0012 36.856406,23.000629 l -0.811694,-4.42e-4 v -2.287571 -2.287571 l 0.324838,0.183866 c 0.17866,0.101126 2.699599,1.570625 5.602085,3.265552 l 5.277248,3.081685 -0.49761,0.04014 c -1.174277,0.09472 -2.28374,0.456928 -3.257468,1.063483 -0.215983,0.134539 -0.401964,0.244617 -0.413292,0.244617 -0.01133,0 -0.149413,-0.168911 -0.306855,-0.375357 z"
     id="path17301" />
</svg>
