<?xml version="1.0" encoding="UTF-8" standalone="no"?>
<svg
   version="1.1"
   viewBox="0 0 64 64"
   style="enable-background:new 0 0 64 64;"
   xml:space="preserve"
   id="svg28"
   sodipodi:docname="basket.svg"
   inkscape:version="1.2.2 (732a01da63, 2022-12-09)"
   xmlns:inkscape="http://www.inkscape.org/namespaces/inkscape"
   xmlns:sodipodi="http://sodipodi.sourceforge.net/DTD/sodipodi-0.dtd"
   xmlns="http://www.w3.org/2000/svg"
   xmlns:svg="http://www.w3.org/2000/svg"><defs
     id="defs32" /><sodipodi:namedview
     id="namedview30"
     pagecolor="#ffffff"
     bordercolor="#000000"
     borderopacity="0.25"
     inkscape:showpageshadow="2"
     inkscape:pageopacity="0.0"
     inkscape:pagecheckerboard="0"
     inkscape:deskcolor="#d1d1d1"
     showgrid="false"
     inkscape:zoom="18.171875"
     inkscape:cx="32.05503"
     inkscape:cy="32.05503"
     inkscape:window-width="2560"
     inkscape:window-height="1368"
     inkscape:window-x="-8"
     inkscape:window-y="-8"
     inkscape:window-maximized="1"
     inkscape:current-layer="svg28" /><g
     id="basket"
     style="fill:#c7baad;fill-opacity:1;stroke:#937c64;stroke-opacity:1"><g
       id="g6"
       style="fill:#c7baad;fill-opacity:1;stroke:#937c64;stroke-opacity:1"><path
         d="M60,27H38V14c0-1.7-1.3-3-3-3h-6c-1.7,0-3,1.3-3,3v13H4c-0.6,0-1,0.4-1,1v2c0,1.3,0.8,2.4,2,2.8V42c0,6,4.9,11,11,11H48    c6,0,11-4.9,11-11v-9.2c1.2-0.4,2-1.5,2-2.8v-2C61,27.4,60.6,27,60,27z M28,14c0-0.6,0.4-1,1-1h6c0.6,0,1,0.4,1,1v28    c0,0.6-0.4,1-1,1h-6c-0.6,0-1-0.4-1-1V14z M5,29h21v2H6c-0.6,0-1-0.4-1-1V29z M7,42v-9h4v16.5C8.6,47.9,7,45.1,7,42z M16,51    c-1,0-2-0.2-3-0.5V33h6v18H16z M21,51V33h5v9c0,0.9,0.4,1.7,1,2.2V51H21z M29,51v-6h6v6H29z M37,51v-6.8c0.6-0.5,1-1.3,1-2.2v-9h5    v18H37z M45,51V33h6v17.5c-0.9,0.3-1.9,0.5-3,0.5H45z M53,49.5V33h4v9C57,45.1,55.4,47.9,53,49.5z M59,30c0,0.6-0.4,1-1,1H38v-2    h21V30z"
         id="path2"
         style="fill:#c7baad;fill-opacity:1;stroke:#937c64;stroke-opacity:1" /><circle
         cx="32"
         cy="39"
         r="2"
         id="circle4"
         style="fill:#c7baad;fill-opacity:1;stroke:#937c64;stroke-opacity:1" /></g></g><g
     id="ketchup"
     style="fill:#c7baad;fill-opacity:1;stroke:#937c64;stroke-opacity:1" /><g
     id="burger"
     style="fill:#c7baad;fill-opacity:1;stroke:#937c64;stroke-opacity:1" /><g
     id="eggplant"
     style="fill:#c7baad;fill-opacity:1;stroke:#937c64;stroke-opacity:1" /><g
     id="clamp"
     style="fill:#c7baad;fill-opacity:1;stroke:#937c64;stroke-opacity:1" /><g
     id="chicken_leg"
     style="fill:#c7baad;fill-opacity:1;stroke:#937c64;stroke-opacity:1" /><g
     id="hot_dog"
     style="fill:#c7baad;fill-opacity:1;stroke:#937c64;stroke-opacity:1" /><g
     id="beer"
     style="fill:#c7baad;fill-opacity:1;stroke:#937c64;stroke-opacity:1" /><g
     id="bread"
     style="fill:#c7baad;fill-opacity:1;stroke:#937c64;stroke-opacity:1" /><g
     id="shrimp"
     style="fill:#c7baad;fill-opacity:1;stroke:#937c64;stroke-opacity:1" /><g
     id="pepper"
     style="fill:#c7baad;fill-opacity:1;stroke:#937c64;stroke-opacity:1" /><g
     id="mushroom"
     style="fill:#c7baad;fill-opacity:1;stroke:#937c64;stroke-opacity:1" /><g
     id="wine"
     style="fill:#c7baad;fill-opacity:1;stroke:#937c64;stroke-opacity:1" /><g
     id="sausage"
     style="fill:#c7baad;fill-opacity:1;stroke:#937c64;stroke-opacity:1" /><g
     id="ribs"
     style="fill:#c7baad;fill-opacity:1;stroke:#937c64;stroke-opacity:1" /><g
     id="chicken"
     style="fill:#c7baad;fill-opacity:1;stroke:#937c64;stroke-opacity:1" /><g
     id="meat"
     style="fill:#c7baad;fill-opacity:1;stroke:#937c64;stroke-opacity:1" /><g
     id="grill"
     style="fill:#c7baad;fill-opacity:1;stroke:#937c64;stroke-opacity:1" /><g
     id="stove"
     style="fill:#c7baad;fill-opacity:1;stroke:#937c64;stroke-opacity:1" /><g
     id="grilled"
     style="fill:#c7baad;fill-opacity:1;stroke:#937c64;stroke-opacity:1" /><path
     style="fill:#c7baad;fill-opacity:1;stroke:#937c64;stroke-width:0.533792;stroke-opacity:1;paint-order:markers stroke fill"
     d="m 28.687505,42.350424 -0.154401,-0.132809 -0.01566,-14.051198 c -0.0086,-7.728158 -0.001,-14.133061 0.01683,-14.233115 0.01787,-0.100054 0.08063,-0.230063 0.139478,-0.288908 0.103529,-0.103529 0.211149,-0.106991 3.326251,-0.106991 3.115102,0 3.222722,0.0035 3.326251,0.106991 0.05884,0.05884 0.121611,0.188854 0.139478,0.288908 0.01787,0.100054 0.02544,6.504957 0.01683,14.233115 l -0.01566,14.051198 -0.154401,0.132809 -0.154402,0.132809 H 32 28.841907 Z m 4.151634,-0.97301 c 0.38268,-0.130988 0.852773,-0.448357 1.086365,-0.733425 0.103941,-0.126846 0.270404,-0.40257 0.369917,-0.612718 0.173279,-0.365923 0.180933,-0.410026 0.180933,-1.042449 0,-0.627738 -0.0086,-0.678678 -0.175087,-1.031132 -0.319995,-0.677633 -0.945933,-1.206863 -1.641753,-1.388101 -1.198795,-0.312246 -2.430533,0.265229 -2.960781,1.388101 -0.166438,0.352454 -0.175087,0.403394 -0.175087,1.031132 0,0.63058 0.008,0.677354 0.178459,1.037162 0.223714,0.472353 0.437855,0.744441 0.788441,1.001795 0.665103,0.48823 1.556155,0.620881 2.348593,0.349635 z"
     id="path11001" /><path
     style="fill:#c7baad;fill-opacity:1;stroke:#937c64;stroke-width:0.533792;stroke-opacity:1;paint-order:markers stroke fill"
     d="M 5.8037644,30.43431 C 5.6157022,30.358081 5.5492885,30.230112 5.5178495,29.883397 l -0.030126,-0.332236 h 9.9956045 9.995606 v 0.467756 0.467755 l -9.7816,-0.0035 c -5.379879,-0.0019 -9.8319855,-0.02391 -9.8935694,-0.04887 z"
     id="path11003" /><path
     style="fill:#c7baad;fill-opacity:1;stroke:#937c64;stroke-width:0.533792;stroke-opacity:1;paint-order:markers stroke fill"
     d="m 38.521066,30.019364 v -0.468203 h 9.995606 9.995605 l -0.03064,0.33789 c -0.02192,0.241768 -0.06367,0.37092 -0.146744,0.453998 l -0.116104,0.116108 -9.848862,0.01421 -9.848862,0.0142 z"
     id="path11005" /><path
     style="fill:#c7baad;fill-opacity:1;stroke:#937c64;stroke-width:0.533792;stroke-opacity:1;paint-order:markers stroke fill"
     d="m 37.530525,47.442679 c 0,-2.626367 0.01083,-3.028905 0.08311,-3.088892 0.169881,-0.140989 0.569557,-0.810723 0.722204,-1.210193 l 0.157712,-0.412726 0.01555,-4.60877 0.01555,-4.60877 h 1.979288 1.979288 v 8.474634 8.474635 h -2.476354 -2.476354 z"
     id="path11007" /><path
     style="fill:#c7baad;fill-opacity:1;stroke:#937c64;stroke-width:0.533792;stroke-opacity:1;paint-order:markers stroke fill"
     d="m 45.509888,41.987962 v -8.474634 h 2.476354 2.476355 v 8.304959 8.30496 l -0.481514,0.111396 c -0.826877,0.191295 -1.294341,0.227954 -2.906819,0.227954 h -1.564376 z"
     id="path11009" /><path
     style="fill:#c7baad;fill-opacity:1;stroke:#937c64;stroke-width:0.533792;stroke-opacity:1;paint-order:markers stroke fill"
     d="m 53.544282,40.944326 v -7.430998 h 1.460553 1.460553 l -0.01889,4.82889 c -0.01857,4.747794 -0.02093,4.837855 -0.140388,5.362628 -0.354215,1.556073 -1.068725,2.924923 -2.147126,4.113442 -0.221249,0.243842 -0.450067,0.468928 -0.508486,0.500193 -0.10469,0.05603 -0.106215,-0.04988 -0.106216,-7.374155 z"
     id="path11011" /><path
     style="fill:#c7baad;fill-opacity:1;stroke:#937c64;stroke-width:0.533792;stroke-opacity:1;paint-order:markers stroke fill"
     d="M 29.551161,47.986242 V 45.509888 H 32 34.448839 v 2.476354 2.476355 H 32 29.551161 Z"
     id="path11013" /><path
     style="fill:#c7baad;fill-opacity:1;stroke:#937c64;stroke-width:0.533792;stroke-opacity:1;paint-order:markers stroke fill"
     d="m 21.516767,41.987962 v -8.474634 h 1.979288 1.979288 l 0.01748,4.60877 c 0.01546,4.076593 0.02775,4.637365 0.106441,4.856406 0.181928,0.506414 0.312335,0.754581 0.587673,1.118353 l 0.28254,0.373288 v 2.996226 2.996226 h -2.476354 -2.476354 z"
     id="path11015" /><path
     style="fill:#c7baad;fill-opacity:1;stroke:#937c64;stroke-width:0.533792;stroke-opacity:1;paint-order:markers stroke fill"
     d="m 14.968186,50.401206 c -0.166466,-0.02669 -0.556492,-0.101312 -0.866724,-0.165831 l -0.564059,-0.117306 v -8.30237 -8.302371 h 2.476355 2.476354 v 8.474634 8.474635 l -1.60963,-0.0064 c -0.885297,-0.0035 -1.74583,-0.02827 -1.912296,-0.05496 z"
     id="path11017" /><path
     style="fill:#c7baad;fill-opacity:1;stroke:#937c64;stroke-width:0.533792;stroke-opacity:1;paint-order:markers stroke fill"
     d="M 9.9268839,47.904424 C 8.8249066,46.748938 8.0588908,45.308296 7.6938905,43.704846 7.5744342,43.180073 7.5720765,43.090012 7.5535029,38.342218 l -0.018891,-4.82889 h 1.460553 1.4605531 v 7.429062 c 0,4.085985 -0.01857,7.429272 -0.04127,7.429529 -0.0227,2.75e-4 -0.242102,-0.210117 -0.4875612,-0.467495 z"
     id="path11019" /></svg>
