<?xml version="1.0" encoding="UTF-8" standalone="no"?>
<!-- Created with Inkscape (http://www.inkscape.org/) -->

<svg
   width="64pt"
   height="64pt"
   viewBox="0 0 22.577778 22.577778"
   version="1.1"
   id="svg831"
   inkscape:version="1.2.2 (732a01da63, 2022-12-09)"
   sodipodi:docname="chair_2.svg"
   inkscape:export-filename="C:\Users\User\Desktop\Done Januari 2k22\EX\17 - Shelves.png"
   inkscape:export-xdpi="576"
   inkscape:export-ydpi="576"
   xmlns:inkscape="http://www.inkscape.org/namespaces/inkscape"
   xmlns:sodipodi="http://sodipodi.sourceforge.net/DTD/sodipodi-0.dtd"
   xmlns="http://www.w3.org/2000/svg"
   xmlns:svg="http://www.w3.org/2000/svg"
   xmlns:rdf="http://www.w3.org/1999/02/22-rdf-syntax-ns#"
   xmlns:cc="http://creativecommons.org/ns#"
   xmlns:dc="http://purl.org/dc/elements/1.1/">
  <defs
     id="defs825">
    <pattern
       id="EMFhbasepattern"
       patternUnits="userSpaceOnUse"
       width="6"
       height="6"
       x="0"
       y="0" />
    <pattern
       id="EMFhbasepattern-9"
       patternUnits="userSpaceOnUse"
       width="6"
       height="6"
       x="0"
       y="0" />
    <pattern
       id="EMFhbasepattern-0"
       patternUnits="userSpaceOnUse"
       width="6"
       height="6"
       x="0"
       y="0" />
    <pattern
       id="EMFhbasepattern-7"
       patternUnits="userSpaceOnUse"
       width="6"
       height="6"
       x="0"
       y="0" />
    <pattern
       id="EMFhbasepattern-2"
       patternUnits="userSpaceOnUse"
       width="6"
       height="6"
       x="0"
       y="0" />
    <pattern
       id="EMFhbasepattern-98"
       patternUnits="userSpaceOnUse"
       width="6"
       height="6"
       x="0"
       y="0" />
    <pattern
       id="EMFhbasepattern-6"
       patternUnits="userSpaceOnUse"
       width="6"
       height="6"
       x="0"
       y="0" />
    <pattern
       id="EMFhbasepattern-01"
       patternUnits="userSpaceOnUse"
       width="6"
       height="6"
       x="0"
       y="0" />
    <pattern
       id="EMFhbasepattern-07"
       patternUnits="userSpaceOnUse"
       width="6"
       height="6"
       x="0"
       y="0" />
    <pattern
       id="EMFhbasepattern-8"
       patternUnits="userSpaceOnUse"
       width="6"
       height="6"
       x="0"
       y="0" />
    <pattern
       id="EMFhbasepattern-4"
       patternUnits="userSpaceOnUse"
       width="6"
       height="6"
       x="0"
       y="0" />
    <pattern
       id="EMFhbasepattern-40"
       patternUnits="userSpaceOnUse"
       width="6"
       height="6"
       x="0"
       y="0" />
    <pattern
       id="EMFhbasepattern-08"
       patternUnits="userSpaceOnUse"
       width="6"
       height="6"
       x="0"
       y="0" />
    <pattern
       id="EMFhbasepattern-04"
       patternUnits="userSpaceOnUse"
       width="6"
       height="6"
       x="0"
       y="0" />
    <pattern
       id="EMFhbasepattern-014"
       patternUnits="userSpaceOnUse"
       width="6"
       height="6"
       x="0"
       y="0" />
    <pattern
       id="EMFhbasepattern-27"
       patternUnits="userSpaceOnUse"
       width="6"
       height="6"
       x="0"
       y="0" />
    <pattern
       id="EMFhbasepattern-09"
       patternUnits="userSpaceOnUse"
       width="6"
       height="6"
       x="0"
       y="0" />
    <pattern
       id="EMFhbasepattern-5"
       patternUnits="userSpaceOnUse"
       width="6"
       height="6"
       x="0"
       y="0" />
    <pattern
       id="EMFhbasepattern-018"
       patternUnits="userSpaceOnUse"
       width="6"
       height="6"
       x="0"
       y="0" />
  </defs>
  <sodipodi:namedview
     id="base"
     pagecolor="#ffffff"
     bordercolor="#666666"
     borderopacity="1.0"
     inkscape:pageopacity="0.0"
     inkscape:pageshadow="2"
     inkscape:zoom="4.5878906"
     inkscape:cx="-13.622818"
     inkscape:cy="48.497233"
     inkscape:document-units="pt"
     inkscape:current-layer="layer1"
     showgrid="false"
     units="pt"
     inkscape:window-width="2560"
     inkscape:window-height="1368"
     inkscape:window-x="-8"
     inkscape:window-y="-8"
     inkscape:window-maximized="1"
     inkscape:pagecheckerboard="true"
     inkscape:showpageshadow="false"
     inkscape:object-paths="true"
     inkscape:snap-intersection-paths="true"
     inkscape:snap-smooth-nodes="true"
     inkscape:snap-midpoints="true"
     showguides="true"
     inkscape:snap-bbox="true"
     inkscape:bbox-nodes="true"
     inkscape:snap-nodes="false"
     inkscape:snap-global="true"
     inkscape:deskcolor="#d1d1d1">
    <inkscape:grid
       type="xygrid"
       id="grid1378" />
    <sodipodi:guide
       position="0.97013831,21.607643"
       orientation="78.000048,0"
       id="guide1380"
       inkscape:locked="false" />
    <sodipodi:guide
       position="0.97013831,0.97013129"
       orientation="0,78.000005"
       id="guide1382"
       inkscape:locked="false" />
    <sodipodi:guide
       position="21.607639,0.97013129"
       orientation="-78.000048,0"
       id="guide1384"
       inkscape:locked="false" />
    <sodipodi:guide
       position="21.607639,21.607643"
       orientation="0,-78.000005"
       id="guide1386"
       inkscape:locked="false" />
  </sodipodi:namedview>
  <metadata
     id="metadata828">
    <rdf:RDF>
      <cc:Work
         rdf:about="">
        <dc:format>image/svg+xml</dc:format>
        <dc:type
           rdf:resource="http://purl.org/dc/dcmitype/StillImage" />
      </cc:Work>
    </rdf:RDF>
  </metadata>
  <g
     inkscape:label="Icon"
     inkscape:groupmode="layer"
     id="layer1"
     transform="translate(0,-274.42223)">
    <path
       id="path10769"
       style="color:#000000;display:inline;fill:#c7baad;stroke-width:1;stroke-linecap:round;stroke-linejoin:round;-inkscape-stroke:none;fill-opacity:1"
       d="m 16.609366,275.89912 c -1.307104,1.62433 -1.878981,4.12152 -2.364381,5.90993 -2.53438,-0.6792 -6.1457361,-1.64797 -7.6775443,-2.05945 -0.4547676,-0.12414 -0.9318116,0.15106 -1.0538233,0.60641 l -0.543775,2.02366 c -0.1309461,0.48872 0.1644925,1.00065 0.6532194,1.1316 l 0.4708132,0.12734 c 0.488695,0.13093 1.0002693,-0.16394 1.131599,-0.65253 l 0.1115098,-0.41919 0.8115303,0.21752 c -0.3002134,1.12046 -0.6791434,2.53668 -0.9044532,3.37759 H 5.5996575 c -0.579729,0 -1.0593281,0.47961 -1.0593281,1.05933 v 0.70484 c 0,0.57974 0.4795991,1.05657 1.0593281,1.05657 h 0.4336433 l -0.7117247,2.65486 c -0.1761928,-0.12867 -0.3482799,-0.26241 -0.5155531,-0.40198 -0.5303971,-0.4425 -1.3314463,-0.45137 -1.8343792,0.0517 -0.4617631,0.55797 -0.2570065,1.36733 0.1301243,1.73802 2.1870433,1.87366 5.0309784,3.00451 8.1352819,3.00451 3.104304,0 5.947548,-1.13085 8.134593,-3.00451 0.551742,-0.47268 0.549648,-1.32123 0.04681,-1.82406 -0.472414,-0.42908 -1.203413,-0.41076 -1.750405,0.0344 -0.179897,0.15009 -0.365285,0.29348 -0.555475,0.4309 -0.291096,-1.08705 -0.582271,-2.17423 -0.87348,-3.26127 0.368157,-0.57146 0.354881,-1.39127 -0.07779,-2.1338 0.388034,-2.35523 1.004386,-4.63623 1.806158,-6.85501 1.049238,-0.0735 1.903891,-0.90693 1.903902,-1.97411 -0.0276,-1.72032 -1.972719,-2.71097 -3.261999,-1.54322 z m 2.557118,1.54321 c -7e-6,0.73405 -0.587525,1.32159 -1.32158,1.32159 -0.18347,0 -0.356981,-0.0372 -0.514865,-0.1039 -0.178864,-0.0749 -0.384642,0.009 -0.460487,0.18723 -0.07491,0.17885 0.0088,0.38463 0.187224,0.46048 0.06324,0.0268 0.138747,0.021 0.205119,0.0413 -0.736648,2.06696 -1.32918,4.18207 -1.71874,6.36422 -0.379585,-0.23568 -0.929432,-0.31744 -1.387657,-0.20718 0.484226,-2.84173 1.279658,-5.57911 2.365073,-8.2172 7.04e-4,-10e-4 -7.05e-4,-0.004 0,-0.005 0.172485,-0.37494 0.360251,-0.67617 0.567179,-0.86867 0.869313,-0.69787 2.050079,0.0735 2.078734,1.02766 z m -12.8317046,2.9825 c 2.63127,0.69374 5.2820746,1.41036 7.7326136,2.06705 -0.08961,0.35914 -0.173751,0.72021 -0.253303,1.08273 -2.216996,-0.60231 -4.4160253,-1.18327 -6.6354281,-1.77795 -0.187784,-0.0509 -0.3812595,0.0601 -0.4322653,0.2478 l -0.2023673,0.75646 c -0.032494,0.12095 -0.1475057,0.18866 -0.2684461,0.15626 l -0.4708133,-0.12454 c -0.120771,-0.0324 -0.1858526,-0.14699 -0.1534933,-0.26776 l 0.541019,-2.02711 c 0.018784,-0.0702 0.075643,-0.11215 0.1424838,-0.11282 z m 2.4944779,2.54267 0.6807503,0.1824 c -0.257454,0.96044 -0.5741853,2.14202 -0.8073998,3.0121 H 7.9736743 c 0.2306313,-0.86077 0.5715528,-2.13444 0.855583,-3.1945 z m 1.3601267,0.3648 0.681437,0.1831 c -0.221373,0.8269 -0.485812,1.81579 -0.708281,2.6466 H 9.4329191 c 0.2300992,-0.85994 0.5155109,-1.92953 0.7564649,-2.8297 z m 1.362188,0.36551 0.681441,0.18241 c -0.188816,0.70534 -0.408956,1.52634 -0.611232,2.28178 h -0.730999 c 0.214315,-0.79891 0.454169,-1.69381 0.66079,-2.46419 z m 1.362192,0.3655 0.754399,0.20237 c -0.107298,0.53496 -0.203128,1.07405 -0.288407,1.61618 -0.104334,0.0835 -0.200376,0.17731 -0.285651,0.28014 h -0.74339 c 0.190293,-0.70915 0.388498,-1.44815 0.563049,-2.09869 z m 2.904724,3.33492 c 0.03317,0.70161 -0.548022,1.25996 -1.233474,1.23279 -0.685451,-0.0272 -1.269163,-0.48154 -1.232786,-1.23279 0.03638,-0.75125 0.531811,-1.26117 1.292511,-1.23623 0.760701,0.0249 1.140589,0.53462 1.173749,1.23623 z m -3.096783,-0.53069 c -0.149606,0.4893 -0.07795,1.09444 0.137663,1.40968 -2.419304,-10e-4 -4.8495142,0 -7.2597352,0 -0.1988043,0 -0.3537955,-0.15223 -0.3537955,-0.35105 v -0.70484 c 0,-0.1988 0.1549912,-0.35379 0.3537955,-0.35379 z m -5.9580997,2.1152 h 0.7289334 l -0.9202876,3.43474 c -0.2155229,-0.11322 -0.4259394,-0.23466 -0.63188,-0.36275 z m 1.4592411,0 h 5.2498356 c 0.239417,0.16883 0.518535,0.28497 0.819791,0.33109 0.306607,1.14407 0.61297,2.28789 0.919597,3.43197 -1.218777,0.52589 -2.562093,0.81773 -3.975059,0.81773 -1.4294473,0 -2.7877024,-0.29876 -4.0177396,-0.83631 z m 7.4462716,0.02 c 0.275047,1.02534 0.551091,2.05079 0.825986,3.07612 -0.206744,0.12733 -0.418337,0.24692 -0.634632,0.3593 -0.281496,-1.05025 -0.563084,-2.10018 -0.844574,-3.15045 0.236884,-0.0542 0.457781,-0.1523 0.65322,-0.28497 z m 3.250255,2.69822 c 0.233014,0.23302 0.232848,0.58393 -0.0055,0.78813 -2.064488,1.76867 -4.743793,2.83865 -7.676856,2.83865 -2.9330622,0 -5.6123707,-1.06998 -7.6768598,-2.83865 -0.2570805,-0.22024 -0.2567387,-0.53689 -0.091545,-0.70209 0.2329362,-0.23295 0.6188372,-0.2347 0.8872445,-0.0106 1.9187488,1.60982 4.5373353,2.4728 6.8811603,2.49242 2.678323,-0.11122 4.916288,-0.87618 6.881158,-2.49242 0.339067,-0.23355 0.541786,-0.26336 0.801197,-0.075 z"
       sodipodi:nodetypes="cccccccccccssssccsccsscccccccccscccccccccccccccccccccccccccccccccccccccccczzzzzcccsscccccccccccscccccccccssscccc" />
  </g>
</svg>
