<?xml version="1.0" encoding="UTF-8" standalone="no"?>
<!-- Created with Inkscape (http://www.inkscape.org/) -->

<svg
   width="64pt"
   height="64pt"
   viewBox="0 0 22.577778 22.577778"
   version="1.1"
   id="svg831"
   inkscape:version="1.2.2 (732a01da63, 2022-12-09)"
   sodipodi:docname="chair.svg"
   inkscape:export-filename="C:\Users\User\Desktop\Done Januari 2k22\EX\17 - Shelves.png"
   inkscape:export-xdpi="576"
   inkscape:export-ydpi="576"
   xmlns:inkscape="http://www.inkscape.org/namespaces/inkscape"
   xmlns:sodipodi="http://sodipodi.sourceforge.net/DTD/sodipodi-0.dtd"
   xmlns="http://www.w3.org/2000/svg"
   xmlns:svg="http://www.w3.org/2000/svg"
   xmlns:rdf="http://www.w3.org/1999/02/22-rdf-syntax-ns#"
   xmlns:cc="http://creativecommons.org/ns#"
   xmlns:dc="http://purl.org/dc/elements/1.1/">
  <defs
     id="defs825">
    <pattern
       id="EMFhbasepattern"
       patternUnits="userSpaceOnUse"
       width="6"
       height="6"
       x="0"
       y="0" />
    <pattern
       id="EMFhbasepattern-9"
       patternUnits="userSpaceOnUse"
       width="6"
       height="6"
       x="0"
       y="0" />
    <pattern
       id="EMFhbasepattern-0"
       patternUnits="userSpaceOnUse"
       width="6"
       height="6"
       x="0"
       y="0" />
    <pattern
       id="EMFhbasepattern-7"
       patternUnits="userSpaceOnUse"
       width="6"
       height="6"
       x="0"
       y="0" />
    <pattern
       id="EMFhbasepattern-2"
       patternUnits="userSpaceOnUse"
       width="6"
       height="6"
       x="0"
       y="0" />
    <pattern
       id="EMFhbasepattern-98"
       patternUnits="userSpaceOnUse"
       width="6"
       height="6"
       x="0"
       y="0" />
    <pattern
       id="EMFhbasepattern-6"
       patternUnits="userSpaceOnUse"
       width="6"
       height="6"
       x="0"
       y="0" />
    <pattern
       id="EMFhbasepattern-01"
       patternUnits="userSpaceOnUse"
       width="6"
       height="6"
       x="0"
       y="0" />
    <pattern
       id="EMFhbasepattern-07"
       patternUnits="userSpaceOnUse"
       width="6"
       height="6"
       x="0"
       y="0" />
    <pattern
       id="EMFhbasepattern-8"
       patternUnits="userSpaceOnUse"
       width="6"
       height="6"
       x="0"
       y="0" />
    <pattern
       id="EMFhbasepattern-4"
       patternUnits="userSpaceOnUse"
       width="6"
       height="6"
       x="0"
       y="0" />
    <pattern
       id="EMFhbasepattern-40"
       patternUnits="userSpaceOnUse"
       width="6"
       height="6"
       x="0"
       y="0" />
    <pattern
       id="EMFhbasepattern-08"
       patternUnits="userSpaceOnUse"
       width="6"
       height="6"
       x="0"
       y="0" />
    <pattern
       id="EMFhbasepattern-04"
       patternUnits="userSpaceOnUse"
       width="6"
       height="6"
       x="0"
       y="0" />
    <pattern
       id="EMFhbasepattern-014"
       patternUnits="userSpaceOnUse"
       width="6"
       height="6"
       x="0"
       y="0" />
    <pattern
       id="EMFhbasepattern-27"
       patternUnits="userSpaceOnUse"
       width="6"
       height="6"
       x="0"
       y="0" />
    <pattern
       id="EMFhbasepattern-09"
       patternUnits="userSpaceOnUse"
       width="6"
       height="6"
       x="0"
       y="0" />
    <pattern
       id="EMFhbasepattern-5"
       patternUnits="userSpaceOnUse"
       width="6"
       height="6"
       x="0"
       y="0" />
    <pattern
       id="EMFhbasepattern-018"
       patternUnits="userSpaceOnUse"
       width="6"
       height="6"
       x="0"
       y="0" />
  </defs>
  <sodipodi:namedview
     id="base"
     pagecolor="#ffffff"
     bordercolor="#666666"
     borderopacity="1.0"
     inkscape:pageopacity="0.0"
     inkscape:pageshadow="2"
     inkscape:zoom="4.5878906"
     inkscape:cx="-13.622818"
     inkscape:cy="48.497233"
     inkscape:document-units="pt"
     inkscape:current-layer="layer1"
     showgrid="false"
     units="pt"
     inkscape:window-width="2560"
     inkscape:window-height="1368"
     inkscape:window-x="-8"
     inkscape:window-y="-8"
     inkscape:window-maximized="1"
     inkscape:pagecheckerboard="true"
     inkscape:showpageshadow="false"
     inkscape:object-paths="true"
     inkscape:snap-intersection-paths="true"
     inkscape:snap-smooth-nodes="true"
     inkscape:snap-midpoints="true"
     showguides="true"
     inkscape:snap-bbox="true"
     inkscape:bbox-nodes="true"
     inkscape:snap-nodes="false"
     inkscape:snap-global="true"
     inkscape:deskcolor="#d1d1d1">
    <inkscape:grid
       type="xygrid"
       id="grid1378" />
    <sodipodi:guide
       position="0.97013831,21.607643"
       orientation="78.000048,0"
       id="guide1380"
       inkscape:locked="false" />
    <sodipodi:guide
       position="0.97013831,0.97013129"
       orientation="0,78.000005"
       id="guide1382"
       inkscape:locked="false" />
    <sodipodi:guide
       position="21.607639,0.97013129"
       orientation="-78.000048,0"
       id="guide1384"
       inkscape:locked="false" />
    <sodipodi:guide
       position="21.607639,21.607643"
       orientation="0,-78.000005"
       id="guide1386"
       inkscape:locked="false" />
  </sodipodi:namedview>
  <metadata
     id="metadata828">
    <rdf:RDF>
      <cc:Work
         rdf:about="">
        <dc:format>image/svg+xml</dc:format>
        <dc:type
           rdf:resource="http://purl.org/dc/dcmitype/StillImage" />
      </cc:Work>
    </rdf:RDF>
  </metadata>
  <g
     inkscape:label="Icon"
     inkscape:groupmode="layer"
     id="layer1"
     transform="translate(0,-274.42223)">
    <path
       id="path19046"
       style="color:#000000;display:inline;fill:#ffffff;stroke-width:1;stroke-linecap:round;stroke-linejoin:round;-inkscape-stroke:none"
       d="m 17.188428,275.47666 c -1.274153,3.33654 -2.490858,6.95466 -3.021984,9.99479 0.751865,-0.15053 1.686577,0.14824 2.013042,0.7693 0.389308,-2.36332 1.006873,-4.65179 1.811398,-6.87819 1.052682,-0.0738 1.910142,-0.91061 1.910152,-1.98128 -0.01849,-1.41288 -1.378225,-2.27005 -2.712608,-1.90462 z m -11.6390686,4.68352 c -0.2265375,0.70168 -0.4044119,1.45147 -0.5987348,2.17464 -0.1313747,0.49032 0.1650325,1.00394 0.6553639,1.13532 l 0.4723588,0.12775 c 0.4902996,0.13136 1.0035533,-0.16448 1.1353141,-0.65467 l 0.1118759,-0.42056 0.8141946,0.21822 c -0.2977727,1.11167 -0.6814049,2.545 -0.9074225,3.38869 h 0.7320158 c 0.2313459,-0.86362 0.5786515,-2.16091 0.8583919,-3.20499 l 0.6829856,0.183 c -0.2563053,0.95627 -0.5761278,2.14908 -0.8100505,3.02199 H 9.428361 c 0.2305084,-0.86142 0.5196039,-1.94492 0.758948,-2.83899 l 0.683674,0.1837 c -0.221045,0.82559 -0.48742,1.82175 -0.710607,2.65529 h 0.730634 c 0.215075,-0.80172 0.457382,-1.70557 0.662959,-2.47228 l 0.683678,0.183 c -0.189181,0.70632 -0.410252,1.53139 -0.613239,2.28928 h 0.731328 c 0.190906,-0.71152 0.390683,-1.4559 0.564897,-2.10558 l 0.756875,0.20303 c 0.119872,-0.59758 0.253672,-1.19103 0.400541,-1.77963 -2.843046,-0.76184 -5.6859193,-1.52434 -8.5286896,-2.28721 z m 9.0480076,5.96939 c -0.687634,0 -1.236833,0.55265 -1.236833,1.24028 0,0.68763 0.549199,1.23684 1.236833,1.23684 0.687631,0 1.237522,-0.54921 1.237522,-1.23684 0,-0.68763 -0.549891,-1.24028 -1.237522,-1.24028 z m -10.0162031,2.12216 h 8.2849121 c -0.235879,-0.49658 -0.229398,-0.92835 -0.138115,-1.41431 H 4.5825464 Z m 2.1691195,0.70784 -0.8252474,3.08139 c 0.408881,0.25437 0.8372443,0.48073 1.2824095,0.67538 l 1.0068698,-3.75677 z m 8.9347496,0.0194 c -0.324073,0.28806 -0.82301,0.42439 -1.381165,0.31284 0.307614,1.14782 0.615032,2.29542 0.922616,3.44323 0.446753,-0.19277 0.876704,-0.41635 1.287247,-0.66917 z m -4.446657,5.28434 c -2.6246973,0 -5.0335254,-0.94027 -6.9037514,-2.5006 -0.00176,-9.1e-4 -0.00318,-0.001 -0.00484,-0.003 l -0.9074201,-0.7911 c -0.1736491,0.0627 -0.3366345,0.16328 -0.4765029,0.30317 -0.5146255,0.50343 -0.1889979,1.26163 0.1305515,1.74372 2.1942235,1.87981 5.0474951,3.01438 8.1619909,3.01438 3.114495,0 5.967073,-1.13457 8.161296,-3.01438 0.553556,-0.47424 0.551455,-1.32556 0.04696,-1.83005 -0.0984,-0.0984 -0.209347,-0.17207 -0.328029,-0.22444 -2.292713,1.955 -5.24885,3.30236 -7.880248,3.30236 z"
       sodipodi:nodetypes="cccccccccccccccccccccccccccccccssssscccccccccccccccccccccssscc" />
  </g>
</svg>
