<?xml version="1.0" encoding="UTF-8" standalone="no"?>
<svg
   viewBox="0 0 1920 1920"
   version="1.1"
   id="svg5905"
   sodipodi:docname="mug.svg"
   inkscape:version="1.2.2 (732a01da63, 2022-12-09)"
   xmlns:inkscape="http://www.inkscape.org/namespaces/inkscape"
   xmlns:sodipodi="http://sodipodi.sourceforge.net/DTD/sodipodi-0.dtd"
   xmlns="http://www.w3.org/2000/svg"
   xmlns:svg="http://www.w3.org/2000/svg">
  <defs
     id="defs5909" />
  <sodipodi:namedview
     id="namedview5907"
     pagecolor="#ffffff"
     bordercolor="#000000"
     borderopacity="0.25"
     inkscape:showpageshadow="2"
     inkscape:pageopacity="0.0"
     inkscape:pagecheckerboard="0"
     inkscape:deskcolor="#d1d1d1"
     showgrid="false"
     inkscape:zoom="0.60572917"
     inkscape:cx="961.6509"
     inkscape:cy="1092.0722"
     inkscape:window-width="2560"
     inkscape:window-height="1368"
     inkscape:window-x="-8"
     inkscape:window-y="-8"
     inkscape:window-maximized="1"
     inkscape:current-layer="svg5905" />
  <style
     id="style5895">
        .st0{fill:#fff}.st1{fill:none;stroke:#231f20;stroke-width:50;stroke-linecap:round;stroke-linejoin:round;stroke-miterlimit:10}
    </style>
  <g
     id="g35243">
    <path
       class="st0"
       d="M1667.7 782.4c23.5 56.3 35.4 116.1 35.4 177.6s-11.9 121.3-35.4 177.6c-22.7 54.4-55.2 103.3-96.5 145.2-41.4 42-89.7 75-143.5 98.1-24.1 10.4-48.9 18.5-74.2 24.4s-51.1 9.6-77.3 11v-186c61.9-5.7 119.4-32.9 164-78.1 50.6-51.3 78.4-119.6 78.4-192.3s-27.9-141-78.4-192.3c-44.6-45.2-102.1-72.4-164-78.1v-186c52.4 2.8 103.2 14.7 151.5 35.4 53.8 23.1 102.1 56.1 143.5 98.1 41.3 42.1 73.8 91 96.5 145.4zm-391.5-278.8V314.5H216.9v1101.9c0 104.4 84.7 189.1 189.1 189.1h681.1c104.4 0 189.1-84.7 189.1-189.1V503.6z"
       id="Layer_3"
       style="stroke:#a99581;stroke-opacity:1;fill:#c7baad;fill-opacity:1" />
    <path
       class="st1"
       d="m 1276.2,1416.4 c 26.2,-1.4 52,-5.1 77.3,-11 25.3,-5.9 50.1,-14.1 74.2,-24.4 53.8,-23.1 102.1,-56.1 143.5,-98.1 41.4,-42 73.8,-90.8 96.5,-145.2 23.5,-56.3 35.4,-116.1 35.4,-177.6 0,-61.5 -11.9,-121.3 -35.4,-177.6 -22.7,-54.4 -55.2,-103.3 -96.5,-145.2 -41.4,-42 -89.7,-75 -143.5,-98.1 -48.3,-20.7 -99.1,-32.6 -151.5,-35.4 V 314.5 H 216.9 v 1101.9 c 0,104.4 84.7,189.1 189.1,189.1 h 681.1 c 104.4,0 189.1,-84.7 189.1,-189.1 z"
       id="path5898"
       style="fill:#c7baad;fill-opacity:1;stroke:#a99581;stroke-opacity:1" />
    <path
       class="st1"
       d="m 1276.2,689.6 c 61.9,5.7 119.4,32.9 164,78.1 50.6,51.3 78.4,119.6 78.4,192.3 0,72.7 -27.9,140.9 -78.4,192.3 -44.6,45.2 -102.1,72.4 -164,78.1"
       id="path5900"
       style="fill:#ffffff;fill-opacity:1;stroke:#a99581;stroke-opacity:1" />
    <path
       class="st1"
       d="m 1276.2,503.6 v 912.8"
       id="path5902"
       style="fill:#c7baad;fill-opacity:1;stroke:#a99581;stroke-opacity:1" />
    <path
       style="fill:#c7baad;fill-opacity:1;stroke:#a99581;stroke-width:16.0138;stroke-opacity:1;paint-order:markers stroke fill"
       d="m 383.97482,1578.0871 c -35.75122,-5.2143 -67.07917,-20.9765 -92.78193,-46.6819 -21.54062,-21.5428 -35.04194,-45.032 -44.06922,-76.6702 l -3.6155,-12.6714 -0.43196,-550.98879 -0.43196,-550.98883 h 503.55904 503.55901 l -0.4271,552.63973 -0.4272,552.63969 -4.4794,14.2615 c -6.2885,20.021 -11.5518,31.29 -21.8042,46.6843 -26.0562,39.1244 -67.7025,65.4021 -113.818,71.8161 -15.7103,2.1851 -709.83798,2.1466 -724.83158,-0.04 z"
       id="path6574" />
    <path
       style="fill:#c7baad;fill-opacity:1;stroke:#a99581;stroke-width:16.0138;stroke-opacity:1;paint-order:markers stroke fill"
       d="m 1302.5623,1320.7124 v -67.6142 l 4.54,-1.0334 c 52.4121,-11.9303 88.3208,-28.6133 125.693,-58.3963 54.8219,-43.6893 91.5766,-105.0765 106.7923,-178.3633 3.5678,-17.18425 5.0046,-72.84916 2.4171,-93.64215 -10.9965,-88.36844 -62.2088,-168.65046 -137.396,-215.38664 -29.1695,-18.1317 -57.5144,-29.2786 -97.5064,-38.3453 l -4.54,-1.02927 V 599.35007 531.7983 l 6.1909,0.89042 c 74.5851,10.72738 147.7609,42.3473 206.7756,89.34951 18.216,14.50811 49.3047,45.26894 63.7588,63.08645 129.2048,159.26983 130.5026,386.36712 3.1182,545.67562 -47.6263,59.5622 -107.9045,103.9803 -179.0383,131.9309 -27.0105,10.6133 -57.5569,18.4987 -96.2652,24.8506 l -4.54,0.7449 z"
       id="path6576" />
    <path
       style="fill:#c7baad;fill-opacity:1;stroke:#a99581;stroke-width:16.0138;stroke-opacity:1;paint-order:markers stroke fill"
       d="m 374.75494,1575.7073 c -61.93867,-13.3432 -108.14593,-57.2684 -126.69338,-120.4364 -3.38661,-11.534 -3.39472,-12.6248 -4.19289,-563.37064 l -0.79971,-551.81428 h 503.10373 503.10371 l -0.6235,543.55976 c -0.3429,298.95786 -0.8736,549.13156 -1.1794,555.94156 -1.0155,22.6138 -15.2639,54.3873 -35.8839,80.0194 -19.2179,23.8892 -51.8321,45.0782 -83.1975,54.0522 l -13.2072,3.7788 -364.84956,0.2906 c -307.35216,0.2449 -366.54063,-0.074 -375.5804,-2.021 z"
       id="path6647" />
    <path
       style="fill:#c7baad;fill-opacity:1;stroke:#a99581;stroke-width:16.0138;stroke-opacity:1;paint-order:markers stroke fill"
       d="m 1295.9587,1321.9037 v -74.9098 l 13.3932,-2.878 c 109.7978,-23.5944 191.5686,-104.4627 220.5136,-218.0798 3.8269,-15.0217 4.2771,-20.3761 4.9968,-59.43249 0.7636,-41.43277 0.641,-43.65931 -3.5307,-64.11146 -15.0742,-73.90203 -55.4919,-136.84348 -115.8495,-180.40942 -28.0323,-20.23366 -74.1128,-40.03165 -109.2052,-46.91891 l -10.3182,-2.02504 v -74.86002 -74.86002 l 4.54,0.78431 c 2.497,0.43136 11.5976,1.94214 20.2236,3.35728 71.1219,11.66797 150.2336,47.77242 203.6801,92.95419 18.883,15.96305 53.5864,51.43418 65.6344,67.08651 89.3336,116.05885 116.6642,263.24247 74.6345,401.93047 -20.4361,67.4343 -58.5724,130.7425 -109.4786,181.74 -51.4375,51.5298 -115.7127,89.7976 -184.2973,109.7258 -12.5507,3.6468 -47.8264,11.2245 -68.7458,14.7676 l -6.1909,1.0485 z"
       id="path6649" />
  </g>
</svg>
