<?xml version="1.0" encoding="UTF-8" standalone="no"?>
<svg
   viewBox="0 0 1920 1920"
   version="1.1"
   id="svg3349"
   sodipodi:docname="mug_2.svg"
   inkscape:version="1.2.2 (732a01da63, 2022-12-09)"
   xmlns:inkscape="http://www.inkscape.org/namespaces/inkscape"
   xmlns:sodipodi="http://sodipodi.sourceforge.net/DTD/sodipodi-0.dtd"
   xmlns="http://www.w3.org/2000/svg"
   xmlns:svg="http://www.w3.org/2000/svg">
  <defs
     id="defs3353" />
  <sodipodi:namedview
     id="namedview3351"
     pagecolor="#ffffff"
     bordercolor="#000000"
     borderopacity="0.25"
     inkscape:showpageshadow="2"
     inkscape:pageopacity="0.0"
     inkscape:pagecheckerboard="0"
     inkscape:deskcolor="#d1d1d1"
     showgrid="false"
     inkscape:zoom="0.60572917"
     inkscape:cx="961.6509"
     inkscape:cy="961.6509"
     inkscape:window-width="2560"
     inkscape:window-height="1368"
     inkscape:window-x="-8"
     inkscape:window-y="-8"
     inkscape:window-maximized="1"
     inkscape:current-layer="svg3349" />
  <style
     id="style3339">
        .st0{fill:#fff}.st1{fill:none;stroke:#231f20;stroke-width:50;stroke-linecap:round;stroke-linejoin:round;stroke-miterlimit:10}
    </style>
  <path
     class="st0"
     d="M1667.7 782.4c23.5 56.3 35.4 116.1 35.4 177.6s-11.9 121.3-35.4 177.6c-22.7 54.4-55.2 103.3-96.5 145.2-41.4 42-89.7 75-143.5 98.1-24.1 10.4-48.9 18.5-74.2 24.4s-51.1 9.6-77.3 11v-186c61.9-5.7 119.4-32.9 164-78.1 50.6-51.3 78.4-119.6 78.4-192.3s-27.9-141-78.4-192.3c-44.6-45.2-102.1-72.4-164-78.1v-186c52.4 2.8 103.2 14.7 151.5 35.4 53.8 23.1 102.1 56.1 143.5 98.1 41.3 42.1 73.8 91 96.5 145.4zm-391.5-278.8V314.5H216.9v1101.9c0 104.4 84.7 189.1 189.1 189.1h681.1c104.4 0 189.1-84.7 189.1-189.1V503.6z"
     id="Layer_3"
     style="stroke:#c7baad;fill:#ffffff;fill-opacity:1;stroke-opacity:1" />
  <path
     class="st1"
     d="m 1276.2,1416.4 c 26.2,-1.4 52,-5.1 77.3,-11 25.3,-5.9 50.1,-14.1 74.2,-24.4 53.8,-23.1 102.1,-56.1 143.5,-98.1 41.4,-42 73.8,-90.8 96.5,-145.2 23.5,-56.3 35.4,-116.1 35.4,-177.6 0,-61.5 -11.9,-121.3 -35.4,-177.6 -22.7,-54.4 -55.2,-103.3 -96.5,-145.2 -41.4,-42 -89.7,-75 -143.5,-98.1 -48.3,-20.7 -99.1,-32.6 -151.5,-35.4 V 314.5 H 216.9 v 1101.9 c 0,104.4 84.7,189.1 189.1,189.1 h 681.1 c 104.4,0 189.1,-84.7 189.1,-189.1 z"
     id="path3342"
     style="fill:#ffffff;fill-opacity:1;stroke:#c7baad;stroke-opacity:1" />
  <path
     class="st1"
     d="m 1276.2,689.6 c 61.9,5.7 119.4,32.9 164,78.1 50.6,51.3 78.4,119.6 78.4,192.3 0,72.7 -27.9,140.9 -78.4,192.3 -44.6,45.2 -102.1,72.4 -164,78.1"
     id="path3344"
     style="fill:#ffffff;fill-opacity:0;stroke:#c7baad;stroke-opacity:1" />
  <path
     class="st1"
     d="m 1276.2,503.6 v 912.8"
     id="path3346"
     style="fill:#ffffff;fill-opacity:1;stroke:#c7baad;stroke-opacity:1" />
</svg>
