<?xml version="1.0" encoding="UTF-8" standalone="no"?>
<!-- Created with Inkscape (http://www.inkscape.org/) -->

<svg
   width="258.30801mm"
   height="45.928001mm"
   viewBox="0 0 258.30802 45.928001"
   version="1.1"
   id="svg637"
   inkscape:export-filename="mainlogo.png"
   inkscape:export-xdpi="96"
   inkscape:export-ydpi="96"
   inkscape:version="1.2.2 (732a01da63, 2022-12-09)"
   sodipodi:docname="mainlogo-grey.svg"
   xmlns:inkscape="http://www.inkscape.org/namespaces/inkscape"
   xmlns:sodipodi="http://sodipodi.sourceforge.net/DTD/sodipodi-0.dtd"
   xmlns="http://www.w3.org/2000/svg"
   xmlns:svg="http://www.w3.org/2000/svg">
  <sodipodi:namedview
     id="namedview639"
     pagecolor="#ffffff"
     bordercolor="#000000"
     borderopacity="0.25"
     inkscape:showpageshadow="2"
     inkscape:pageopacity="0.0"
     inkscape:pagecheckerboard="0"
     inkscape:deskcolor="#d1d1d1"
     inkscape:document-units="mm"
     showgrid="false"
     inkscape:zoom="1.036062"
     inkscape:cx="468.6013"
     inkscape:cy="168.42621"
     inkscape:window-width="2560"
     inkscape:window-height="1368"
     inkscape:window-x="-8"
     inkscape:window-y="-8"
     inkscape:window-maximized="1"
     inkscape:current-layer="layer1" />
  <defs
     id="defs634">
    <clipPath
       clipPathUnits="userSpaceOnUse"
       id="clipPath234">
      <path
         d="M 0,595.276 H 841.89 V 0 H 0 Z"
         id="path232" />
    </clipPath>
  </defs>
  <g
     inkscape:label="Шар 1"
     inkscape:groupmode="layer"
     id="layer1"
     transform="translate(18.364823,-104.6692)">
    <g
       id="g224"
       transform="matrix(0.35277777,0,0,-0.35277777,6.0403437,135.79043)"
       style="fill:#525253;fill-opacity:1">
      <path
         d="m 0,0 v -1.135 h -21.502 l -15.328,24.482 18.521,22.85 -6.315,3.761 H -2.413 L -26.186,34.63 -3.548,0 Z m -37.54,0 h 5.323 V -1.135 H -58.829 V 0 h 5.677 v 46.126 l -6.315,3.832 h 28.243 l -6.316,-3.832 z"
         style="fill:#525253;fill-opacity:1;fill-rule:nonzero;stroke:none"
         id="path226" />
    </g>
    <g
       id="g228"
       transform="matrix(0.35277777,0,0,-0.35277777,-37.594032,232.77905)"
       style="fill:#525253;fill-opacity:1">
      <g
         id="g230"
         clip-path="url(#clipPath234)"
         style="fill:#525253;fill-opacity:1">
        <g
           id="g236"
           transform="translate(169.3179,282.3798)"
           style="fill:#525253;fill-opacity:1">
          <path
             d="m 0,0 c 0,15.257 -15.754,39.952 -25.902,39.952 -2.838,0 -4.754,-2.058 -4.754,-6.032 0,-15.257 16.037,-39.952 25.83,-39.952 C -1.703,-6.032 0,-4.116 0,0 m -41.727,17.173 c 0,13.909 9.438,26.753 25.618,26.753 15.541,0 27.108,-11.638 27.108,-27.179 0,-13.909 -9.296,-26.753 -25.547,-26.753 -15.47,0 -27.179,11.567 -27.179,27.179"
             style="fill:#525253;fill-opacity:1;fill-rule:nonzero;stroke:none"
             id="path238" />
        </g>
        <g
           id="g240"
           transform="translate(201.4836,328.08)"
           style="fill:#525253;fill-opacity:1">
          <path
             d="M 0,0 -9.438,12.702 -9.367,12.774 4.045,8.303 17.386,12.774 17.457,12.702 8.09,0 Z m 22.496,-38.817 c 0,-9.793 -8.232,-16.89 -20.083,-16.89 -6.032,0 -12.206,0.923 -17.954,2.839 l 4.187,18.167 h 0.071 l 9.864,-18.593 c 1.561,-0.638 2.412,-0.709 3.69,-0.709 5.038,0 8.728,3.335 8.728,7.877 0,3.406 -1.845,6.316 -5.961,8.515 l -8.09,4.4 c -6.599,3.619 -10.502,8.445 -10.502,15.612 0,8.87 6.529,15.825 18.096,15.825 5.535,0 10.573,-0.781 16.108,-3.122 L 16.464,-20.579 H 16.393 L 7.025,-3.761 c -1.419,0.355 -2.058,0.426 -3.477,0.426 -3.619,0 -6.742,-2.626 -6.742,-6.529 0,-3.122 1.775,-5.89 7.026,-9.012 l 9.296,-5.607 c 5.961,-3.548 9.368,-7.876 9.368,-14.334"
             style="fill:#525253;fill-opacity:1;fill-rule:nonzero;stroke:none"
             id="path242" />
        </g>
        <g
           id="g244"
           transform="translate(242.9265,339.718)"
           style="fill:#525253;fill-opacity:1">
          <path
             d="M 0,0 H 16.534 V -0.071 L -5.039,-11.638 H -5.11 Z M -12.277,-64.79 H -6.6 v 46.127 l -6.315,3.832 H 15.328 L 9.012,-18.663 V -64.79 h 5.678 v -1.135 h -26.967 z"
             style="fill:#525253;fill-opacity:1;fill-rule:nonzero;stroke:none"
             id="path246" />
        </g>
        <g
           id="g248"
           transform="translate(323.3992,274.9284)"
           style="fill:#525253;fill-opacity:1">
          <path
             d="m 0,0 v -1.135 h -21.502 l -15.328,24.482 18.521,22.85 -6.315,3.761 H -2.413 L -26.186,34.63 -3.548,0 Z m -37.54,0 h 5.323 V -1.135 H -58.829 V 0 h 5.677 v 46.126 l -6.315,3.832 h 28.243 l -6.316,-3.832 z"
             style="fill:#525253;fill-opacity:1;fill-rule:nonzero;stroke:none"
             id="path250" />
        </g>
        <g
           id="g252"
           transform="translate(359.1927,293.9465)"
           style="fill:#525253;fill-opacity:1">
          <path
             d="m 0,0 v -19.018 h 5.677 v -1.135 h -26.966 v 1.135 h 5.677 v 14.902 l -15.541,31.224 -5.606,3.832 H -7.735 L -14.051,27.108 -0.922,0.851 7.593,27.108 -0.142,30.94 h 20.225 l -6.316,-3.832 z"
             style="fill:#525253;fill-opacity:1;fill-rule:nonzero;stroke:none"
             id="path254" />
        </g>
        <g
           id="g256"
           transform="translate(521.6433,299.9073)"
           style="fill:#525253;fill-opacity:1">
          <path
             d="m 0,0 c 0,15.541 -5.251,23.844 -14.547,23.844 h -1.774 v -48.823 h 1.135 C -6.032,-24.979 0,-15.754 0,0 m 16.322,0.071 c 0,-16.818 -11.709,-26.185 -30.444,-26.185 h -23.489 v 1.135 h 5.677 v 46.126 l -6.315,3.832 h 25.05 c 18.663,0 29.521,-8.728 29.521,-24.908"
             style="fill:#525253;fill-opacity:1;fill-rule:nonzero;stroke:none"
             id="path258" />
        </g>
        <g
           id="g260"
           transform="translate(562.2534,328.08)"
           style="fill:#525253;fill-opacity:1">
          <path
             d="m 0,0 h -0.071 l 5.109,11.638 h 16.535 v -0.071 z m 7.309,-38.533 -8.729,20.579 -6.67,-20.579 z m 26.469,-14.619 v -1.135 H 7.664 v 1.135 h 5.818 L 7.877,-39.81 H -8.445 l -4.329,-13.342 h 7.31 v -1.135 h -15.683 v 1.135 h 2.909 L 4.329,-1.774 h 3.689 l 22.496,-51.378 z"
             style="fill:#525253;fill-opacity:1;fill-rule:nonzero;stroke:none"
             id="path262" />
        </g>
        <g
           id="g264"
           transform="translate(621.3043,323.7512)"
           style="fill:#525253;fill-opacity:1">
          <path
             d="m 0,0 v -25.192 c 8.729,0.497 10.502,4.684 10.502,13.483 C 10.502,-4.542 7.806,0 2.271,0 Z m 33.779,-48.823 v -1.135 H 13.554 L 0,-26.54 v -22.283 h 6.032 v -1.135 h -27.321 v 1.135 h 5.677 v 46.126 l -6.316,3.833 H 4.825 c 13.98,0 21.999,-4.187 21.999,-12.703 0,-7.025 -4.187,-11.354 -11.567,-13.341 l 15.116,-23.915 z"
             style="fill:#525253;fill-opacity:1;fill-rule:nonzero;stroke:none"
             id="path266" />
        </g>
        <g
           id="g268"
           transform="translate(719.9263,274.9284)"
           style="fill:#525253;fill-opacity:1">
          <path
             d="m 0,0 v -1.135 h -21.502 l -15.328,24.482 18.521,22.85 -6.316,3.761 H -2.413 L -26.186,34.63 -3.548,0 Z m -37.54,0 h 5.323 V -1.135 H -58.829 V 0 h 5.677 v 46.126 l -6.316,3.832 h 28.244 l -6.316,-3.832 z"
             style="fill:#525253;fill-opacity:1;fill-rule:nonzero;stroke:none"
             id="path270" />
        </g>
        <g
           id="g272"
           transform="translate(758.4598,293.9465)"
           style="fill:#525253;fill-opacity:1">
          <path
             d="m 0,0 v -19.018 h 5.677 v -1.135 h -26.966 v 1.135 h 5.677 v 14.902 l -15.541,31.224 -5.606,3.832 H -7.735 L -14.051,27.108 -0.922,0.851 7.593,27.108 -0.142,30.94 h 20.225 l -6.316,-3.832 z"
             style="fill:#525253;fill-opacity:1;fill-rule:nonzero;stroke:none"
             id="path274" />
        </g>
        <g
           id="g276"
           transform="translate(401.9584,247.9714)"
           style="fill:#525253;fill-opacity:1">
          <path
             d="M 0,0 C 0,4.965 -1.678,7.617 -4.647,7.617 H -5.214 V -7.979 h 0.363 C -1.927,-7.979 0,-5.032 0,0 m 5.214,0.023 c 0,-5.373 -3.74,-8.365 -9.725,-8.365 h -7.504 v 0.363 h 1.814 V 6.756 l -2.018,1.224 h 8.002 c 5.962,0 9.431,-2.789 9.431,-7.957"
             style="fill:#525253;fill-opacity:1;fill-rule:nonzero;stroke:none"
             id="path278" />
        </g>
        <g
           id="g280"
           transform="translate(418.4879,255.5883)"
           style="fill:#525253;fill-opacity:1">
          <path
             d="m 0,0 v -7.254 c 1.428,0.068 3.015,1.27 3.854,2.992 h 0.022 v -6.324 H 3.854 C 2.992,-8.818 1.474,-7.639 0,-7.571 v -8.025 c 2.675,0.045 4.965,1.36 7.095,5.304 h 0.023 v -5.667 H -6.801 v 0.363 h 1.814 V -0.861 L -7.005,0.363 H 7.118 V -5.304 H 7.095 C 4.965,-1.405 2.675,-0.023 0,0"
             style="fill:#525253;fill-opacity:1;fill-rule:nonzero;stroke:none"
             id="path282" />
        </g>
        <g
           id="g284"
           transform="translate(447.9609,255.9512)"
           style="fill:#525253;fill-opacity:1">
          <path
             d="m 0,0 -2.04,-1.179 v -15.143 h -1.179 l -11.629,13.693 0.906,-13.33 h 2.743 v -0.363 h -5.712 v 0.363 h 1.247 L -15.302,-1.315 -17.478,0 h 6.914 l 8.07,-9.883 -1.269,8.704 L -5.803,0 Z"
             style="fill:#525253;fill-opacity:1;fill-rule:nonzero;stroke:none"
             id="path286" />
        </g>
        <g
           id="g288"
           transform="translate(452.0221,239.9922)"
           style="fill:#525253;fill-opacity:1">
          <path
             d="m 0,0 h 1.814 v 14.735 l -2.018,1.224 H 8.819 L 6.801,14.735 V 0 H 8.615 V -0.363 H 0 Z"
             style="fill:#525253;fill-opacity:1;fill-rule:nonzero;stroke:none"
             id="path290" />
        </g>
        <path
           d="M 781.382,349.253 H 60.508 v 6.393 h 720.874 z"
           style="fill:#525253;fill-opacity:1;fill-rule:nonzero;stroke:none"
           id="path292" />
        <path
           d="M 368.054,244.602 H 60.508 v 6.393 h 307.546 z"
           style="fill:#525253;fill-opacity:1;fill-rule:nonzero;stroke:none"
           id="path294" />
        <path
           d="m 781.382,244.602 h -300.24 v 6.393 h 300.24 z"
           style="fill:#525253;fill-opacity:1;fill-rule:nonzero;stroke:none"
           id="path296" />
        <g
           id="g298"
           transform="translate(427.7049,291.2177)"
           style="fill:#525253;fill-opacity:1">
          <path
             d="M 0,0 -6.032,14.222 -10.643,0 Z m 18.292,-10.104 v -0.784 H 0.245 v 0.784 h 4.022 l -3.875,9.221 h -11.28 l -2.991,-9.221 h 5.051 v -0.784 h -10.838 v 0.784 h 2.011 L -2.06,25.403 h 2.55 l 15.546,-35.507 z"
             style="fill:#525253;fill-opacity:1;fill-rule:nonzero;stroke:none"
             id="path300" />
        </g>
      </g>
    </g>
  </g>
</svg>
